<mxfile host="app.diagrams.net" agent="Mozilla/5.0 (Windows NT 10.0; Win64; x64) AppleWebKit/537.36 (KHTML, like Gecko) Chrome/129.0.0.0 Safari/537.36" version="24.7.17">
  <diagram name="Page-1" id="P9PX-pw3Yvb8Yvj4412z">
    <mxGraphModel dx="1834" dy="746" grid="0" gridSize="10" guides="1" tooltips="1" connect="1" arrows="1" fold="1" page="0" pageScale="1" pageWidth="850" pageHeight="1100" background="none" math="0" shadow="0">
      <root>
        <mxCell id="0" />
        <mxCell id="1" parent="0" />
        <mxCell id="TpPB3-7-Iv5cD9N0m5jN-1" value="AWS Cloud" style="sketch=0;outlineConnect=0;gradientColor=none;html=1;whiteSpace=wrap;fontSize=12;fontStyle=0;shape=mxgraph.aws4.group;grIcon=mxgraph.aws4.group_aws_cloud;strokeColor=#858B94;fillColor=none;verticalAlign=top;align=left;spacingLeft=30;fontColor=#858B94;dashed=0;" vertex="1" parent="1">
          <mxGeometry x="50" y="60" width="720" height="600" as="geometry" />
        </mxCell>
        <mxCell id="TpPB3-7-Iv5cD9N0m5jN-2" value="VPC" style="sketch=0;outlineConnect=0;gradientColor=none;html=1;whiteSpace=wrap;fontSize=12;fontStyle=0;shape=mxgraph.aws4.group;grIcon=mxgraph.aws4.group_vpc;strokeColor=#879196;fillColor=none;verticalAlign=top;align=left;spacingLeft=30;fontColor=#879196;dashed=0;" vertex="1" parent="1">
          <mxGeometry x="80" y="110" width="661" height="514" as="geometry" />
        </mxCell>
        <mxCell id="TpPB3-7-Iv5cD9N0m5jN-3" value="Availability zone 1" style="sketch=0;outlineConnect=0;gradientColor=none;html=1;whiteSpace=wrap;fontSize=12;fontStyle=0;shape=mxgraph.aws4.group;grIcon=mxgraph.aws4.group_availability_zone;strokeColor=#545B64;fillColor=none;verticalAlign=top;align=left;spacingLeft=30;fontColor=#545B64;dashed=1;" vertex="1" parent="1">
          <mxGeometry x="90" y="145" width="627" height="175" as="geometry" />
        </mxCell>
        <mxCell id="TpPB3-7-Iv5cD9N0m5jN-4" value="Availability zone 2" style="sketch=0;outlineConnect=0;gradientColor=none;html=1;whiteSpace=wrap;fontSize=12;fontStyle=0;shape=mxgraph.aws4.group;grIcon=mxgraph.aws4.group_availability_zone;strokeColor=#545B64;fillColor=none;verticalAlign=top;align=left;spacingLeft=30;fontColor=#545B64;dashed=1;" vertex="1" parent="1">
          <mxGeometry x="95" y="413" width="631" height="180" as="geometry" />
        </mxCell>
        <mxCell id="TpPB3-7-Iv5cD9N0m5jN-5" value="Public Subnet 1" style="sketch=0;outlineConnect=0;gradientColor=none;html=1;whiteSpace=wrap;fontSize=12;fontStyle=0;shape=mxgraph.aws4.group;grIcon=mxgraph.aws4.group_subnet;strokeColor=#879196;fillColor=none;verticalAlign=top;align=left;spacingLeft=30;fontColor=#879196;dashed=0;" vertex="1" parent="1">
          <mxGeometry x="120" y="178" width="130" height="130" as="geometry" />
        </mxCell>
        <mxCell id="TpPB3-7-Iv5cD9N0m5jN-6" value="Private Subnet 1" style="sketch=0;outlineConnect=0;gradientColor=none;html=1;whiteSpace=wrap;fontSize=12;fontStyle=0;shape=mxgraph.aws4.group;grIcon=mxgraph.aws4.group_subnet;strokeColor=#879196;fillColor=none;verticalAlign=top;align=left;spacingLeft=30;fontColor=#879196;dashed=0;" vertex="1" parent="1">
          <mxGeometry x="329" y="173" width="130" height="130" as="geometry" />
        </mxCell>
        <mxCell id="TpPB3-7-Iv5cD9N0m5jN-7" value="Private Subnet 3" style="sketch=0;outlineConnect=0;gradientColor=none;html=1;whiteSpace=wrap;fontSize=12;fontStyle=0;shape=mxgraph.aws4.group;grIcon=mxgraph.aws4.group_subnet;strokeColor=#879196;fillColor=none;verticalAlign=top;align=left;spacingLeft=30;fontColor=#879196;dashed=0;" vertex="1" parent="1">
          <mxGeometry x="567" y="167.5" width="130" height="130" as="geometry" />
        </mxCell>
        <mxCell id="TpPB3-7-Iv5cD9N0m5jN-8" value="Private Subnet 4" style="sketch=0;outlineConnect=0;gradientColor=none;html=1;whiteSpace=wrap;fontSize=12;fontStyle=0;shape=mxgraph.aws4.group;grIcon=mxgraph.aws4.group_subnet;strokeColor=#879196;fillColor=none;verticalAlign=top;align=left;spacingLeft=30;fontColor=#879196;dashed=0;" vertex="1" parent="1">
          <mxGeometry x="570" y="433" width="130" height="130" as="geometry" />
        </mxCell>
        <mxCell id="TpPB3-7-Iv5cD9N0m5jN-9" value="Private Subnet 2" style="sketch=0;outlineConnect=0;gradientColor=none;html=1;whiteSpace=wrap;fontSize=12;fontStyle=0;shape=mxgraph.aws4.group;grIcon=mxgraph.aws4.group_subnet;strokeColor=#879196;fillColor=none;verticalAlign=top;align=left;spacingLeft=30;fontColor=#879196;dashed=0;" vertex="1" parent="1">
          <mxGeometry x="338.5" y="436" width="130" height="130" as="geometry" />
        </mxCell>
        <mxCell id="TpPB3-7-Iv5cD9N0m5jN-10" value="Public Subnet 2" style="sketch=0;outlineConnect=0;gradientColor=none;html=1;whiteSpace=wrap;fontSize=12;fontStyle=0;shape=mxgraph.aws4.group;grIcon=mxgraph.aws4.group_subnet;strokeColor=#879196;fillColor=none;verticalAlign=top;align=left;spacingLeft=30;fontColor=#879196;dashed=0;" vertex="1" parent="1">
          <mxGeometry x="125" y="438" width="130" height="130" as="geometry" />
        </mxCell>
        <mxCell id="TpPB3-7-Iv5cD9N0m5jN-44" style="edgeStyle=orthogonalEdgeStyle;rounded=0;orthogonalLoop=1;jettySize=auto;html=1;" edge="1" parent="1" source="TpPB3-7-Iv5cD9N0m5jN-11" target="TpPB3-7-Iv5cD9N0m5jN-14">
          <mxGeometry relative="1" as="geometry">
            <Array as="points">
              <mxPoint x="383" y="222" />
              <mxPoint x="383" y="219" />
            </Array>
          </mxGeometry>
        </mxCell>
        <mxCell id="TpPB3-7-Iv5cD9N0m5jN-45" value=".txt upload" style="edgeLabel;html=1;align=center;verticalAlign=middle;resizable=0;points=[];" vertex="1" connectable="0" parent="TpPB3-7-Iv5cD9N0m5jN-44">
          <mxGeometry x="0.5684" y="4" relative="1" as="geometry">
            <mxPoint as="offset" />
          </mxGeometry>
        </mxCell>
        <mxCell id="TpPB3-7-Iv5cD9N0m5jN-11" value="webpage" style="sketch=0;outlineConnect=0;fontColor=#232F3E;gradientColor=none;fillColor=#7AA116;strokeColor=none;dashed=0;verticalLabelPosition=bottom;verticalAlign=top;align=center;html=1;fontSize=12;fontStyle=0;aspect=fixed;pointerEvents=1;shape=mxgraph.aws4.bucket;" vertex="1" parent="1">
          <mxGeometry x="129" y="214.5" width="54.81" height="57" as="geometry" />
        </mxCell>
        <mxCell id="TpPB3-7-Iv5cD9N0m5jN-43" style="edgeStyle=orthogonalEdgeStyle;rounded=0;orthogonalLoop=1;jettySize=auto;html=1;" edge="1" parent="1" source="TpPB3-7-Iv5cD9N0m5jN-12" target="TpPB3-7-Iv5cD9N0m5jN-16">
          <mxGeometry relative="1" as="geometry">
            <mxPoint x="196.0039944844179" y="474.5" as="sourcePoint" />
            <mxPoint x="587.2060055155823" y="472.5" as="targetPoint" />
            <Array as="points">
              <mxPoint x="390" y="489" />
              <mxPoint x="390" y="487" />
            </Array>
          </mxGeometry>
        </mxCell>
        <mxCell id="TpPB3-7-Iv5cD9N0m5jN-46" value=".txt upload" style="edgeLabel;html=1;align=center;verticalAlign=middle;resizable=0;points=[];" vertex="1" connectable="0" parent="TpPB3-7-Iv5cD9N0m5jN-43">
          <mxGeometry x="0.5727" y="1" relative="1" as="geometry">
            <mxPoint as="offset" />
          </mxGeometry>
        </mxCell>
        <mxCell id="TpPB3-7-Iv5cD9N0m5jN-12" value="webpage" style="sketch=0;outlineConnect=0;fontColor=#232F3E;gradientColor=none;fillColor=#7AA116;strokeColor=none;dashed=0;verticalLabelPosition=bottom;verticalAlign=top;align=center;html=1;fontSize=12;fontStyle=0;aspect=fixed;pointerEvents=1;shape=mxgraph.aws4.bucket;" vertex="1" parent="1">
          <mxGeometry x="136" y="474.5" width="54.81" height="57" as="geometry" />
        </mxCell>
        <mxCell id="TpPB3-7-Iv5cD9N0m5jN-47" style="edgeStyle=orthogonalEdgeStyle;rounded=0;orthogonalLoop=1;jettySize=auto;html=1;" edge="1" parent="1">
          <mxGeometry relative="1" as="geometry">
            <mxPoint x="581.9960055155823" y="234" as="sourcePoint" />
            <mxPoint x="384.97945406155463" y="237" as="targetPoint" />
            <Array as="points">
              <mxPoint x="394.99" y="234" />
              <mxPoint x="394.99" y="237" />
            </Array>
          </mxGeometry>
        </mxCell>
        <mxCell id="TpPB3-7-Iv5cD9N0m5jN-48" value="lambda trigger" style="edgeLabel;html=1;align=center;verticalAlign=middle;resizable=0;points=[];" vertex="1" connectable="0" parent="TpPB3-7-Iv5cD9N0m5jN-47">
          <mxGeometry x="0.11" y="4" relative="1" as="geometry">
            <mxPoint x="-23" y="2" as="offset" />
          </mxGeometry>
        </mxCell>
        <mxCell id="TpPB3-7-Iv5cD9N0m5jN-62" style="edgeStyle=orthogonalEdgeStyle;rounded=0;orthogonalLoop=1;jettySize=auto;html=1;" edge="1" parent="1" source="TpPB3-7-Iv5cD9N0m5jN-14" target="TpPB3-7-Iv5cD9N0m5jN-11">
          <mxGeometry relative="1" as="geometry">
            <Array as="points">
              <mxPoint x="609" y="272" />
              <mxPoint x="186" y="272" />
              <mxPoint x="186" y="243" />
            </Array>
          </mxGeometry>
        </mxCell>
        <mxCell id="TpPB3-7-Iv5cD9N0m5jN-63" value=".mp3 download link" style="edgeLabel;html=1;align=center;verticalAlign=middle;resizable=0;points=[];" vertex="1" connectable="0" parent="TpPB3-7-Iv5cD9N0m5jN-62">
          <mxGeometry x="-0.3801" y="-2" relative="1" as="geometry">
            <mxPoint as="offset" />
          </mxGeometry>
        </mxCell>
        <mxCell id="TpPB3-7-Iv5cD9N0m5jN-14" value="file storage" style="sketch=0;outlineConnect=0;fontColor=#232F3E;gradientColor=none;fillColor=#7AA116;strokeColor=none;dashed=0;verticalLabelPosition=bottom;verticalAlign=top;align=center;html=1;fontSize=12;fontStyle=0;aspect=fixed;pointerEvents=1;shape=mxgraph.aws4.bucket;" vertex="1" parent="1">
          <mxGeometry x="582" y="209.5" width="54.81" height="57" as="geometry" />
        </mxCell>
        <mxCell id="TpPB3-7-Iv5cD9N0m5jN-49" style="edgeStyle=orthogonalEdgeStyle;rounded=0;orthogonalLoop=1;jettySize=auto;html=1;" edge="1" parent="1">
          <mxGeometry relative="1" as="geometry">
            <mxPoint x="581.9960055155823" y="508" as="sourcePoint" />
            <mxPoint x="400.98945406155485" y="504" as="targetPoint" />
            <Array as="points">
              <mxPoint x="448.99" y="508" />
              <mxPoint x="448.99" y="504" />
            </Array>
          </mxGeometry>
        </mxCell>
        <mxCell id="TpPB3-7-Iv5cD9N0m5jN-50" value="lambda trigger" style="edgeLabel;html=1;align=center;verticalAlign=middle;resizable=0;points=[];" vertex="1" connectable="0" parent="TpPB3-7-Iv5cD9N0m5jN-49">
          <mxGeometry x="0.4811" y="-1" relative="1" as="geometry">
            <mxPoint as="offset" />
          </mxGeometry>
        </mxCell>
        <mxCell id="TpPB3-7-Iv5cD9N0m5jN-64" style="edgeStyle=orthogonalEdgeStyle;rounded=0;orthogonalLoop=1;jettySize=auto;html=1;" edge="1" parent="1" source="TpPB3-7-Iv5cD9N0m5jN-16" target="TpPB3-7-Iv5cD9N0m5jN-12">
          <mxGeometry relative="1" as="geometry">
            <Array as="points">
              <mxPoint x="609" y="578" />
              <mxPoint x="163" y="578" />
            </Array>
          </mxGeometry>
        </mxCell>
        <mxCell id="TpPB3-7-Iv5cD9N0m5jN-65" value=".mp3 download link" style="edgeLabel;html=1;align=center;verticalAlign=middle;resizable=0;points=[];" vertex="1" connectable="0" parent="TpPB3-7-Iv5cD9N0m5jN-64">
          <mxGeometry x="0.218" y="-1" relative="1" as="geometry">
            <mxPoint as="offset" />
          </mxGeometry>
        </mxCell>
        <mxCell id="TpPB3-7-Iv5cD9N0m5jN-16" value="file storage" style="sketch=0;outlineConnect=0;fontColor=#232F3E;gradientColor=none;fillColor=#7AA116;strokeColor=none;dashed=0;verticalLabelPosition=bottom;verticalAlign=top;align=center;html=1;fontSize=12;fontStyle=0;aspect=fixed;pointerEvents=1;shape=mxgraph.aws4.bucket;" vertex="1" parent="1">
          <mxGeometry x="582" y="472.5" width="54.81" height="57" as="geometry" />
        </mxCell>
        <mxCell id="TpPB3-7-Iv5cD9N0m5jN-17" value="polly logic" style="sketch=0;outlineConnect=0;fontColor=#232F3E;gradientColor=none;fillColor=#ED7100;strokeColor=none;dashed=0;verticalLabelPosition=bottom;verticalAlign=top;align=center;html=1;fontSize=12;fontStyle=0;aspect=fixed;pointerEvents=1;shape=mxgraph.aws4.lambda_function;" vertex="1" parent="1">
          <mxGeometry x="339" y="219" width="48" height="48" as="geometry" />
        </mxCell>
        <mxCell id="TpPB3-7-Iv5cD9N0m5jN-55" style="edgeStyle=orthogonalEdgeStyle;rounded=0;orthogonalLoop=1;jettySize=auto;html=1;" edge="1" parent="1" source="TpPB3-7-Iv5cD9N0m5jN-17">
          <mxGeometry relative="1" as="geometry">
            <mxPoint x="357.99945406155484" y="255.5" as="sourcePoint" />
            <mxPoint x="589" y="255" as="targetPoint" />
            <Array as="points">
              <mxPoint x="488" y="251" />
              <mxPoint x="488" y="255" />
            </Array>
          </mxGeometry>
        </mxCell>
        <mxCell id="TpPB3-7-Iv5cD9N0m5jN-56" value=".mp3 upload" style="edgeLabel;html=1;align=center;verticalAlign=middle;resizable=0;points=[];" vertex="1" connectable="0" parent="TpPB3-7-Iv5cD9N0m5jN-55">
          <mxGeometry x="0.3925" relative="1" as="geometry">
            <mxPoint x="-1" y="2" as="offset" />
          </mxGeometry>
        </mxCell>
        <mxCell id="TpPB3-7-Iv5cD9N0m5jN-57" style="edgeStyle=orthogonalEdgeStyle;rounded=0;orthogonalLoop=1;jettySize=auto;html=1;" edge="1" parent="1" target="TpPB3-7-Iv5cD9N0m5jN-16">
          <mxGeometry relative="1" as="geometry">
            <mxPoint x="380.99945406155484" y="525" as="sourcePoint" />
            <mxPoint x="562.0060055155823" y="529.5" as="targetPoint" />
            <Array as="points">
              <mxPoint x="381" y="526" />
              <mxPoint x="542" y="526" />
              <mxPoint x="542" y="515" />
            </Array>
          </mxGeometry>
        </mxCell>
        <mxCell id="TpPB3-7-Iv5cD9N0m5jN-58" value=".mp3 upload" style="edgeLabel;html=1;align=center;verticalAlign=middle;resizable=0;points=[];" vertex="1" connectable="0" parent="TpPB3-7-Iv5cD9N0m5jN-57">
          <mxGeometry x="0.0516" y="-5" relative="1" as="geometry">
            <mxPoint x="17" y="-4" as="offset" />
          </mxGeometry>
        </mxCell>
        <mxCell id="TpPB3-7-Iv5cD9N0m5jN-18" value="polly logic" style="sketch=0;outlineConnect=0;fontColor=#232F3E;gradientColor=none;fillColor=#ED7100;strokeColor=none;dashed=0;verticalLabelPosition=bottom;verticalAlign=top;align=center;html=1;fontSize=12;fontStyle=0;aspect=fixed;pointerEvents=1;shape=mxgraph.aws4.lambda_function;" vertex="1" parent="1">
          <mxGeometry x="353" y="472.5" width="48" height="48" as="geometry" />
        </mxCell>
        <mxCell id="TpPB3-7-Iv5cD9N0m5jN-35" style="edgeStyle=orthogonalEdgeStyle;rounded=0;orthogonalLoop=1;jettySize=auto;html=1;startArrow=classic;startFill=1;" edge="1" parent="1" source="TpPB3-7-Iv5cD9N0m5jN-19" target="TpPB3-7-Iv5cD9N0m5jN-34">
          <mxGeometry relative="1" as="geometry" />
        </mxCell>
        <mxCell id="TpPB3-7-Iv5cD9N0m5jN-19" value="IGW" style="sketch=0;outlineConnect=0;fontColor=#232F3E;gradientColor=none;fillColor=#8C4FFF;strokeColor=none;dashed=0;verticalLabelPosition=bottom;verticalAlign=top;align=center;html=1;fontSize=12;fontStyle=0;aspect=fixed;pointerEvents=1;shape=mxgraph.aws4.internet_gateway;" vertex="1" parent="1">
          <mxGeometry x="36" y="330.5" width="59" height="59" as="geometry" />
        </mxCell>
        <mxCell id="TpPB3-7-Iv5cD9N0m5jN-20" value="routing table" style="sketch=0;outlineConnect=0;fontColor=#232F3E;gradientColor=none;fillColor=#8C4FFF;strokeColor=none;dashed=0;verticalLabelPosition=bottom;verticalAlign=top;align=center;html=1;fontSize=12;fontStyle=0;aspect=fixed;pointerEvents=1;shape=mxgraph.aws4.route_table;" vertex="1" parent="1">
          <mxGeometry x="652" y="340.51000000000005" width="40" height="38.97" as="geometry" />
        </mxCell>
        <mxCell id="TpPB3-7-Iv5cD9N0m5jN-29" value="NAT" style="sketch=0;outlineConnect=0;fontColor=#232F3E;gradientColor=none;fillColor=#8C4FFF;strokeColor=none;dashed=0;verticalLabelPosition=bottom;verticalAlign=top;align=center;html=1;fontSize=12;fontStyle=0;aspect=fixed;pointerEvents=1;shape=mxgraph.aws4.nat_gateway;" vertex="1" parent="1">
          <mxGeometry x="202" y="246" width="40" height="40" as="geometry" />
        </mxCell>
        <mxCell id="TpPB3-7-Iv5cD9N0m5jN-31" value="NAT" style="sketch=0;outlineConnect=0;fontColor=#232F3E;gradientColor=none;fillColor=#8C4FFF;strokeColor=none;dashed=0;verticalLabelPosition=bottom;verticalAlign=top;align=center;html=1;fontSize=12;fontStyle=0;aspect=fixed;pointerEvents=1;shape=mxgraph.aws4.nat_gateway;" vertex="1" parent="1">
          <mxGeometry x="206" y="495" width="40" height="40" as="geometry" />
        </mxCell>
        <mxCell id="TpPB3-7-Iv5cD9N0m5jN-33" style="edgeStyle=orthogonalEdgeStyle;rounded=0;orthogonalLoop=1;jettySize=auto;html=1;startArrow=classic;startFill=1;" edge="1" parent="1" source="TpPB3-7-Iv5cD9N0m5jN-32" target="TpPB3-7-Iv5cD9N0m5jN-19">
          <mxGeometry relative="1" as="geometry">
            <mxPoint x="-146" y="314.5" as="targetPoint" />
          </mxGeometry>
        </mxCell>
        <mxCell id="TpPB3-7-Iv5cD9N0m5jN-32" value="user in browser" style="sketch=0;outlineConnect=0;fontColor=#232F3E;gradientColor=none;fillColor=#232F3D;strokeColor=none;dashed=0;verticalLabelPosition=bottom;verticalAlign=top;align=center;html=1;fontSize=12;fontStyle=0;aspect=fixed;pointerEvents=1;shape=mxgraph.aws4.user;" vertex="1" parent="1">
          <mxGeometry x="-245" y="286" width="57" height="57" as="geometry" />
        </mxCell>
        <mxCell id="TpPB3-7-Iv5cD9N0m5jN-37" style="edgeStyle=orthogonalEdgeStyle;rounded=0;orthogonalLoop=1;jettySize=auto;html=1;startArrow=classic;startFill=1;" edge="1" parent="1" source="TpPB3-7-Iv5cD9N0m5jN-34" target="TpPB3-7-Iv5cD9N0m5jN-12">
          <mxGeometry relative="1" as="geometry" />
        </mxCell>
        <mxCell id="TpPB3-7-Iv5cD9N0m5jN-39" style="edgeStyle=orthogonalEdgeStyle;rounded=0;orthogonalLoop=1;jettySize=auto;html=1;startArrow=classic;startFill=1;" edge="1" parent="1" source="TpPB3-7-Iv5cD9N0m5jN-34" target="TpPB3-7-Iv5cD9N0m5jN-11">
          <mxGeometry relative="1" as="geometry" />
        </mxCell>
        <mxCell id="TpPB3-7-Iv5cD9N0m5jN-34" value="ALB" style="sketch=0;outlineConnect=0;fontColor=#232F3E;gradientColor=none;fillColor=#8C4FFF;strokeColor=none;dashed=0;verticalLabelPosition=bottom;verticalAlign=top;align=center;html=1;fontSize=12;fontStyle=0;aspect=fixed;pointerEvents=1;shape=mxgraph.aws4.application_load_balancer;" vertex="1" parent="1">
          <mxGeometry x="183.81" y="336.5" width="47" height="47" as="geometry" />
        </mxCell>
        <mxCell id="TpPB3-7-Iv5cD9N0m5jN-66" value="WAF" style="sketch=0;outlineConnect=0;fontColor=#232F3E;gradientColor=none;fillColor=#DD344C;strokeColor=none;dashed=0;verticalLabelPosition=bottom;verticalAlign=top;align=center;html=1;fontSize=12;fontStyle=0;aspect=fixed;pointerEvents=1;shape=mxgraph.aws4.waf_rule;" vertex="1" parent="1">
          <mxGeometry x="120" y="347" width="40" height="40" as="geometry" />
        </mxCell>
      </root>
    </mxGraphModel>
  </diagram>
</mxfile>
